<?xml version="1.0" encoding="UTF-8"?>
<svg xmlns="http://www.w3.org/2000/svg" version="1.1" viewBox="0 0 1296 1296">
  <!-- Generator: Adobe Illustrator 29.8.2, SVG Export Plug-In . SVG Version: 2.1.1 Build 3)  -->
  <g id="Layer_2">
    <path d="M1156.713,724.022s8.049,4.565,6.043,7.826l-4.958,8.061s3.438,2.244,4.389,3.909.12,3.702.12,3.702l.711,17.295s124.525,92.607,93.755,144.683c-7.778,13.163-17.127,13.613-32.435,17.073-11.707,2.647-37.105,7.222-37.105,7.222l-39.306-3.599-36.766-8.351-20.992-3.308-2.572,56.479h-10.779s0,4.365,0,4.365h2.824v17.035s1.028,2.264,1.028,2.264l3.113-.476.518,2.776,27.413,30.667,2.832.272.299,3.176,3.03,3.52-12.385-.876-1.007-1.66,1.418-2.206-26.823-29.365-2.259-.706-1.587.706v33.888h-47.95v-33.376s-1.587-1.218-1.587-1.218l-2.259.706-25.944,29.035.438,3.059-.438,2.011h-12.853s3.03-3.52,3.03-3.52l.299-3.176,2.832-.272,27.413-30.667-.134-1.706,1.542-1.541,3.25.229v-1.547s0-17.035,0-17.035h2.824s.615-4.365.615-4.365h-14.471s-2.118-42.923-2.118-42.923l-3.859-4.133-5.174-11.573,2.97-4.045-.852-5.357-1.042-16.686h4.841s3.116-14.512,3.116-14.512l-18.56-21.933-22.87-26.356-15.611-31.277-8.272-72.199s1.945-10.649,9.77-16.572c7.825-5.923,56.166-19.758,162.443,29.089l15.896-6.321,1.237-2.01,3.821.139,4.471,1.874,5.745-8.968,4.703.55,4.22,2.221ZM1068.915,910.75l-44.292-13.459h-3.888s1.818,12.207,1.818,12.207l31.801,25.111,5.953-6.047,8.609-17.812ZM1035.555,950.138l2.682,4.826h8.047s1.198-2.076,1.198-2.076l-11.927-2.75Z" fill="#046492"/>
    <rect x="984.637" y="1038.614" width="133.236" height="7.057" transform="translate(2102.51 2084.285) rotate(-180)" fill="#046492"/>
    <path d="M340.445,724.022s8.049,4.565,6.043,7.826-4.958,8.061-4.958,8.061c0,0,3.438,2.244,4.389,3.909s.12,3.702.12,3.702l.711,17.295s124.525,92.607,93.755,144.683c-7.778,13.163-17.127,13.613-32.435,17.073-11.707,2.647-37.105,7.222-37.105,7.222l-39.306-3.599-36.766-8.351-20.992-3.308-2.572,56.479h-10.779s0,4.365,0,4.365h2.824v17.035s1.028,2.264,1.028,2.264l3.113-.476.518,2.776,27.413,30.667,2.832.272.299,3.176,3.03,3.52-12.385-.876-1.007-1.66,1.418-2.206-26.823-29.365-2.259-.706-1.587.706v33.888h-47.95v-33.376s-1.587-1.218-1.587-1.218l-2.259.706-25.944,29.035.438,3.059-.438,2.011h-12.853s3.03-3.52,3.03-3.52l.299-3.176,2.832-.272,27.413-30.667-.134-1.706,1.542-1.541,3.25.229v-1.547s0-17.035,0-17.035h2.824s.615-4.365.615-4.365h-14.471s-2.118-42.923-2.118-42.923l-3.859-4.133-5.174-11.573,2.97-4.045-.852-5.357-1.042-16.686h4.841s3.116-14.512,3.116-14.512l-18.56-21.933-22.87-26.356-15.611-31.277-8.272-72.199s1.945-10.649,9.77-16.572c7.825-5.923,56.166-19.758,162.443,29.089l15.896-6.321,1.237-2.01,3.821.139,4.471,1.874,5.745-8.968,4.703.55,4.22,2.221ZM252.646,910.75l-44.292-13.459h-3.888s1.818,12.207,1.818,12.207l31.801,25.111,5.953-6.047,8.609-17.812ZM219.286,950.138l2.682,4.826h8.047s1.198-2.076,1.198-2.076l-11.927-2.75Z" fill="#046492"/>
    <rect x="168.368" y="1038.614" width="133.236" height="7.057" transform="translate(469.973 2084.285) rotate(-180)" fill="#046492"/>
    <path d="M856.712,416.567s16.097,9.129,12.085,15.652c-4.012,6.522-9.916,16.121-9.916,16.121,0,0,6.875,4.487,8.778,7.818s.239,7.404.239,7.404l1.422,34.589s249.051,185.215,187.51,289.366c-15.555,26.326-34.254,27.225-64.869,34.146-23.415,5.293-74.21,14.444-74.21,14.444l-78.612-7.197-73.531-16.702-41.985-6.615-5.145,112.958h-21.559s0,8.729,0,8.729h5.647v34.071s2.056,4.528,2.056,4.528l6.226-.951,1.035,5.553,54.825,61.335,5.665.544.598,6.352,6.06,7.039-24.77-1.751-2.014-3.319,2.836-4.411-53.647-58.729-4.518-1.412-3.174,1.412v67.775h-95.899v-66.752s-3.174-2.435-3.174-2.435l-4.518,1.412-51.888,58.07.876,6.118-.876,4.023h-25.707s6.06-7.039,6.06-7.039l.598-6.352,5.665-.544,54.825-61.335-.267-3.411,3.085-3.083,6.5.459v-3.094s0-34.071,0-34.071h5.647s1.231-8.729,1.231-8.729h-28.942s-4.235-85.845-4.235-85.845l-7.718-8.266-10.348-23.145,5.941-8.09-1.703-10.714-2.085-33.371h9.683s6.231-29.024,6.231-29.024l-37.119-43.866-45.741-52.712-31.222-62.554-16.543-144.397s3.89-21.299,19.54-33.145c15.65-11.846,112.333-39.516,324.885,58.178l31.793-12.642,2.473-4.021,7.642.277,8.943,3.747,11.49-17.936,9.406,1.1,8.44,4.442ZM681.115,790.023l-88.585-26.918h-7.776s3.635,24.413,3.635,24.413l63.601,50.222,11.906-12.093,17.219-35.624ZM614.395,868.799l5.365,9.653h16.094s2.396-4.153,2.396-4.153l-23.855-5.5Z" fill="#0d7f97"/>
    <rect x="512.559" y="1045.751" width="266.472" height="14.113" transform="translate(1291.591 2105.615) rotate(-180)" fill="#0d7f97"/>
  </g>
  <g id="Layer_1">
    <path d="M648.495,918.552" fill="#fff"/>
    <path d="M533.307,1045.316c2.084-.105,4.975-1.151,5.835-3.587,1.129-3.2-2.635-5.459-2.635-5.459l53.647-58.729s2.808-.214,4.518-2.412c1.976-2.541,2.016-3.988-3.227-8.882,0,0-7.596-4.8-10.702-1.318-2.71,3.039-1.035,5.553-1.035,5.553l-54.825,61.335s-3.971-2.28-5.665.544c-1.271,2.118-1.828,4.334-.598,6.352" fill="none" stroke="#000" stroke-linejoin="bevel" stroke-width="2"/>
    <polyline points="594.902 918.552 594.672 927.281 589.025 927.281 589.025 963.987" fill="none" stroke="#000" stroke-linejoin="bevel" stroke-width="2"/>
    <rect x="512.559" y="1045.751" width="266.472" height="12.542" transform="translate(1291.591 2104.044) rotate(-180)" fill="none" stroke="#000" stroke-linejoin="bevel" stroke-width="2"/>
    <path d="M701.45,783.32" fill="none" stroke="#000" stroke-linejoin="bevel" stroke-width="2"/>
    <path d="M808.317,428.958l2.473-4.021s6.854-3.95,33.564,12.48c26.71,16.429,25.598,23.911,25.598,23.911l-2.055,2.235" fill="none" stroke="#000" stroke-linejoin="bevel" stroke-width="2"/>
    <path d="M809.227,449.575c4.194,1.459,9.569,3.874,16.297,7.826,5.094,2.992,8.975,5.526,8.975,5.526,8.841,5.767,14.059,10.544,17.13,14.088" fill="none" stroke="#000" stroke-linejoin="bevel" stroke-width="2"/>
    <path d="M827.376,428.962l9.916-16.121s3.667-5.962,19.42,3.727c15.753,9.689,12.085,15.652,12.085,15.652l-9.916,16.121" fill="none" stroke="#000" stroke-linejoin="bevel" stroke-width="2"/>
    <line x1="835.815" y1="476.767" x2="838.762" y2="471.977" fill="none" stroke="#000" stroke-linejoin="bevel" stroke-width="2"/>
    <line x1="815.354" y1="457.578" x2="812.407" y2="462.369" fill="none" stroke="#000" stroke-linejoin="bevel" stroke-width="2"/>
    <polygon points="533.307 1037.964 520.884 1036.081 512.559 1045.751 533.307 1045.751 533.307 1037.964" fill="none" stroke="#000" stroke-linejoin="bevel" stroke-width="2"/>
    <path d="M626.102,1045.316s-.522-2.185-1.67-4.635c-1.714-3.658,1.784-5.571,1.784-5.571l-27.915-57.569s-2.824,1.976-3.63-1.412,0-3.859,7.341-8.753c0,0,8.067-3.388,10.165.941,1.457,3.007-1.15,5.647-1.15,5.647l28.255,58.07s3.731,1,5.025,2.859c1.228,1.763,2.858,4.005.763,6.023" fill="none" stroke="#000" stroke-linejoin="bevel" stroke-width="2"/>
    <polygon points="629.253 1037.964 645.795 1035.61 645.695 1045.751 625.916 1045.751 629.253 1037.964" fill="none" stroke="#000" stroke-linejoin="bevel" stroke-width="2"/>
    <polygon points="602.201 961.352 589.966 961.352 589.025 963.987 596.07 970.408 606.666 965.514 602.201 961.352" fill="none" stroke="#000" stroke-linejoin="bevel" stroke-width="2"/>
    <line x1="602.201" y1="961.352" x2="646.664" y2="961.352" fill="none" stroke="#000" stroke-linejoin="bevel" stroke-width="2"/>
    <path d="M758.283,1045.316c-2.084-.105-4.975-1.151-5.835-3.587-1.129-3.2,2.635-5.459,2.635-5.459l-53.647-58.729s-2.808-.214-4.518-2.412c-1.976-2.541-2.016-3.988,3.227-8.882,0,0,7.596-4.8,10.702-1.318,2.71,3.039,1.035,5.553,1.035,5.553l54.825,61.335s3.971-2.28,5.665.544c1.271,2.118,1.828,4.334.598,6.352" fill="none" stroke="#000" stroke-linejoin="bevel" stroke-width="2"/>
    <polyline points="696.919 918.552 696.919 927.281 702.566 927.281 702.566 963.987" fill="none" stroke="#000" stroke-linejoin="bevel" stroke-width="2"/>
    <polygon points="758.283 1037.964 770.707 1036.081 779.031 1045.751 758.283 1045.751 758.283 1037.964" fill="none" stroke="#000" stroke-linejoin="bevel" stroke-width="2"/>
    <path d="M665.488,1045.316s.522-2.185,1.67-4.635c1.714-3.658-1.784-5.571-1.784-5.571l27.915-57.569s2.824,1.976,3.63-1.412,0-3.859-7.341-8.753c0,0-8.067-3.388-10.165.941-1.457,3.007,1.15,5.647,1.15,5.647l-28.255,58.07s-3.731,1-5.025,2.859c-1.228,1.763-2.858,4.005-.763,6.023" fill="none" stroke="#000" stroke-linejoin="bevel" stroke-width="2"/>
    <polygon points="662.337 1037.964 645.795 1035.61 645.895 1045.751 665.675 1045.751 662.337 1037.964" fill="none" stroke="#000" stroke-linejoin="bevel" stroke-width="2"/>
    <polygon points="689.389 961.352 701.625 961.352 702.566 963.987 695.52 970.408 684.924 965.514 689.389 961.352" fill="none" stroke="#000" stroke-linejoin="bevel" stroke-width="2"/>
    <line x1="689.389" y1="961.352" x2="644.927" y2="961.352" fill="none" stroke="#000" stroke-linejoin="bevel" stroke-width="2"/>
    <polygon points="641.083 1032.128 645.695 1036.081 650.307 1032.128 650.307 961.218 641.083 961.218 641.083 1032.128" fill="none" stroke="#000" stroke-linejoin="bevel" stroke-width="2"/>
    <line x1="693.745" y1="977.54" x2="693.745" y2="1045.316" fill="none" stroke="#000" stroke-linejoin="bevel" stroke-width="2"/>
    <line x1="597.846" y1="977.54" x2="597.846" y2="1045.316" fill="none" stroke="#000" stroke-linejoin="bevel" stroke-width="2"/>
    <path d="M797.099,450.562c1.327,2.415-.732.969,3.741,4.69" fill="none" stroke="#000" stroke-linejoin="bevel" stroke-width="2"/>
    <path d="M846.382,481.309c4.513,1.972,2.795,1.408,5.578,1.847" fill="none" stroke="#000" stroke-linejoin="bevel" stroke-width="2"/>
    <path d="M815.085,458.014c.617-1.004,4.101.12,8.663,2.269,2.191,1.032,7.493,4.396,8.971,5.538,3.91,3.019,6.384,5.601,5.775,6.592" fill="none" stroke="#000" stroke-linejoin="bevel" stroke-width="2"/>
    <path d="M828.036,726.28" fill="none" stroke="#000" stroke-linejoin="bevel" stroke-width="2"/>
    <polyline points="633.069 654.999 592.736 678.698 541.266 631.324 577.771 572.487 623.563 616.676 672.017 590.597 710.974 644.272 781.575 651.312" fill="none" stroke="#000" stroke-linejoin="bevel" stroke-width="2"/>
    <polyline points="740.877 716.687 674.71 712.932 633.069 654.999 669.94 594.081" fill="none" stroke="#000" stroke-linejoin="bevel" stroke-width="2"/>
    <polyline points="541.266 631.324 550.821 686.101 525.605 676.23 562.725 720.096 550.821 686.101 592.37 679.255 674.71 712.932 737.238 765.815 729.139 788.989 797.472 788.357 836.625 719.487 773.322 690.879 781.575 651.312 740.877 716.687 737.238 765.815 799.512 784.381" fill="none" stroke="#000" stroke-linejoin="bevel" stroke-width="2"/>
    <path d="M748.348,725.76" fill="none" stroke="#000" stroke-linejoin="bevel" stroke-width="2"/>
    <polyline points="821.989 426.245 790.054 441.791 782.159 444.498 778.003 443.043 785.134 440.64 816.61 425.214 821.989 426.245 809.2 449.625 793.824 450.503 783.468 445.43" fill="none" stroke="#000" stroke-linejoin="bevel" stroke-width="2"/>
    <polygon points="864.77 452.796 850.176 475.421 852.92 484.997 865.997 495.881 864.77 452.796" fill="none" stroke="#000" stroke-linejoin="bevel" stroke-width="2"/>
    <polyline points="867.641 456.159 869.32 498.153 865.997 495.881" fill="none" stroke="#000" stroke-linejoin="bevel" stroke-width="2"/>
    <line x1="850.176" y1="475.421" x2="852.92" y2="484.997" fill="none" stroke="#000" stroke-linejoin="bevel" stroke-width="2"/>
    <path d="M803.854,787.518c67.71,20.234,207.335,44.154,238.524,16.72,34.289-30.16,67.96-105.942-150.739-288.144-154.465-128.688-412.414-175.86-449.257-124.256-28.488,39.901,6.986,140.589,98.884,233.753" fill="none" stroke="#000" stroke-linejoin="bevel" stroke-width="2"/>
    <polygon points="718.477 918.552 725.59 756.113 714.137 746.862 705.566 746.862 697.277 774.807 648.495 918.552 718.477 918.552" fill="none" stroke="#000" stroke-linejoin="bevel" stroke-width="2"/>
    <polyline points="647.927 857.564 620.814 846.195 594.848 819.576 583.631 799.283 565.56 800.224" fill="none" stroke="#000" stroke-linejoin="bevel" stroke-width="2"/>
    <line x1="585.878" y1="790.023" x2="583.631" y2="799.283" fill="none" stroke="#000" stroke-linejoin="bevel" stroke-width="2"/>
    <path d="M550.388,749.12h-3.576c.622,19.761-4.686,104.501,91.439,125.179" fill="none" stroke="#000" stroke-linejoin="bevel" stroke-width="2"/>
    <polyline points="550.6 793.205 548.884 793.505 544.659 801.295 555.007 824.44 580.231 852.329 607.215 863.489" fill="none" stroke="#000" stroke-linejoin="bevel" stroke-width="2"/>
    <line x1="544.659" y1="801.295" x2="553.133" y2="801.295" fill="none" stroke="#000" stroke-linejoin="bevel" stroke-width="2"/>
    <polygon points="723.622 805.594 724.39 793.619 729.139 788.989 765.607 812.209 723.622 805.594" fill="none" stroke="#000" stroke-linejoin="bevel" stroke-width="2"/>
    <line x1="765.607" y1="812.209" x2="776.525" y2="788.357" fill="none" stroke="#000" stroke-linejoin="bevel" stroke-width="2"/>
    <path d="M580.231,685.9l1.027,12.261-12.865,50.96h-11.9s10.286-47.599,10.286-47.599c.12-.554.276-1.1.468-1.633l5.661-15.752,7.321,1.764Z" fill="none" stroke="#000" stroke-linejoin="bevel" stroke-width="2"/>
    <polyline points="569.979 681.963 586.067 681.963 680.913 740.772 691.186 756.113 675.08 752.591 583.631 696.282" fill="none" stroke="#000" stroke-linejoin="bevel" stroke-width="2"/>
    <polyline points="653.307 845.585 585.878 790.023 567.548 791.846 565.56 800.224 574.584 824.44 600.846 852.093 636.701 866.823 641.928 866.823" fill="none" stroke="#000" stroke-linejoin="bevel" stroke-width="2"/>
    <path d="M638.855,872.315c-74.967-19.311-88.256-62.462-88.256-123.194h15.812s7.419,27.161,7.419,27.161l78.16,61.459,12.346-13.003" fill="none" stroke="#000" stroke-linejoin="bevel" stroke-width="2"/>
    <polyline points="562.725 836.109 566.96 918.552 648.495 918.552" fill="none" stroke="#000" stroke-linejoin="bevel" stroke-width="2"/>
    <polyline points="580.231 852.329 586.73 878.452 635.909 878.104 691.839 773.274 697.926 746.277 714.137 746.277" fill="none" stroke="#000" stroke-linejoin="bevel" stroke-width="2"/>
    <line x1="681.115" y1="788.989" x2="592.531" y2="763.105" fill="none" stroke="#000" stroke-linejoin="bevel" stroke-width="2"/>
    <path d="M670.437,749.12h-94.5s-2.859,2.437-2.859,5.952c0,6.715,2.859,8.033,2.859,8.033h117.945s3.403-13.985,3.403-13.985h-10.312" fill="none" stroke="#000" stroke-linejoin="bevel" stroke-width="2"/>
    <polyline points="675.08 714.922 681.68 741.668 695.599 740.162 694.164 749.12 686.973 749.12 680.913 740.772" fill="none" stroke="#000" stroke-linejoin="bevel" stroke-width="2"/>
    <polyline points="583.631 749.12 578.819 746.862 577.992 743.529 573.078 743.529 571.195 749.12 569.642 758.588" fill="none" stroke="#000" stroke-linejoin="bevel" stroke-width="2"/>
    <line x1="584.754" y1="763.105" x2="588.389" y2="787.518" fill="none" stroke="#000" stroke-linejoin="bevel" stroke-width="2"/>
    <polyline points="603.572 749.12 638.25 729.529 628.083 722.351 588.389 746.862 588.389 699.179" fill="none" stroke="#000" stroke-linejoin="bevel" stroke-width="2"/>
    <polyline points="651.991 722.351 667.458 711.029 656.208 706.428 638.25 715.82" fill="none" stroke="#000" stroke-linejoin="bevel" stroke-width="2"/>
    <polyline points="432.099 437.859 451.185 563.668 479.865 623.518 526.266 677.681 544.139 645.455" fill="none" stroke="#000" stroke-linejoin="bevel" stroke-width="2"/>
    <polyline points="765.607 812.209 839.138 828.912 916.692 836.109 1014.012 817.433" fill="none" stroke="#000" stroke-linejoin="bevel" stroke-width="2"/>
    <polyline points="917.75 836.109 942.489 801.295 976.175 772.799 932.324 744.301 900.861 693.996 873.115 620.589 801.338 598.202 718.101 545.216 663.213 490.836 595.055 495.336 521.468 483.764 486.484 463.191 457.125 509.365 448.642 546.393" fill="none" stroke="#000" stroke-linejoin="bevel" stroke-width="2"/>
    <polyline points="839.138 828.912 887.995 774.271 808.317 662.478 647.855 572.261 514.16 552.847 478.019 617.788" fill="none" stroke="#000" stroke-linejoin="bevel" stroke-width="2"/>
    <line x1="573.078" y1="743.529" x2="569.642" y2="742.776" fill="none" stroke="#000" stroke-linejoin="bevel" stroke-width="2"/>
    <line x1="695.599" y1="740.162" x2="692.729" y2="728.172" fill="none" stroke="#000" stroke-linejoin="bevel" stroke-width="2"/>
    <polyline points="577.69 716.628 577.69 739.199 579.948 749.12 588.389 746.862" fill="none" stroke="#000" stroke-linejoin="bevel" stroke-width="2"/>
    <line x1="681.115" y1="763.105" x2="690.144" y2="770.635" fill="none" stroke="#000" stroke-linejoin="bevel" stroke-width="2"/>
    <line x1="619.76" y1="877.331" x2="613.32" y2="866.823" fill="none" stroke="#000" stroke-linejoin="bevel" stroke-width="2"/>
    <line x1="686.973" y1="779.318" x2="628.656" y2="763.105" fill="none" stroke="#000" stroke-linejoin="bevel" stroke-width="2"/>
    <line x1="678.878" y1="742.588" x2="675.913" y2="749.12" fill="none" stroke="#000" stroke-linejoin="bevel" stroke-width="2"/>
  </g>
</svg>