<?xml version="1.0" encoding="UTF-8"?>
<svg xmlns="http://www.w3.org/2000/svg" version="1.1" viewBox="0 0 1296 1296">
  <!-- Generator: Adobe Illustrator 29.8.2, SVG Export Plug-In . SVG Version: 2.1.1 Build 3)  -->
  <g id="Layer_2">
    <path d="M144.497,721.801l4.703-.55,5.745,8.968,4.471-1.874,3.821-.139,1.237,2.01,15.896,6.321c106.276-48.847,154.617-35.012,162.443-29.089,7.825,5.923,9.77,16.572,9.77,16.572l-8.272,72.199-15.611,31.277-22.87,26.356-18.56,21.933,3.116,14.512h4.841l-1.042,16.686-.852,5.357,2.97,4.045-5.174,11.573-3.859,4.133-2.118,42.923h-14.471l.615,4.365h2.824v18.582l3.25-.229,1.542,1.541-.134,1.706,27.413,30.667,2.832.272.299,3.176,3.03,3.52h-12.853l-.438-2.011.438-3.059-25.944-29.035-2.259-.706-1.587,1.218v33.376s-47.95,0-47.95,0v-33.888l-1.587-.706-2.259.706-26.823,29.365,1.418,2.206-1.007,1.66-12.385.876,3.03-3.52.299-3.176,2.832-.272,27.413-30.667.518-2.776,3.113.476,1.028-2.264v-17.035s2.824,0,2.824,0v-4.365h-10.779l-2.572-56.479-20.992,3.308-36.766,8.351-39.306,3.599s-25.398-4.575-37.105-7.222c-15.308-3.461-24.657-3.91-32.435-17.073-30.771-52.076,93.755-144.683,93.755-144.683l.711-17.295s-.832-2.037.12-3.702,4.389-3.909,4.389-3.909l-4.958-8.061c-2.006-3.261,6.043-7.826,6.043-7.826l4.22-2.221ZM236.685,928.562l5.953,6.047,31.801-25.111,1.818-12.207h-3.888l-44.292,13.459,8.609,17.812ZM249.508,952.889l1.198,2.076h8.047l2.682-4.826-11.927,2.75Z" fill="#046492"/>
    <rect x="179.117" y="1038.614" width="133.236" height="7.057" fill="#046492"/>
    <path d="M960.766,721.801l4.703-.55,5.745,8.968,4.471-1.874,3.821-.139,1.237,2.01,15.896,6.321c106.276-48.847,154.617-35.012,162.443-29.089,7.825,5.923,9.77,16.572,9.77,16.572l-8.272,72.199-15.611,31.277-22.87,26.356-18.56,21.933,3.116,14.512h4.841l-1.042,16.686-.852,5.357,2.97,4.045-5.174,11.573-3.859,4.133-2.118,42.923h-14.471l.615,4.365h2.824v18.582l3.25-.229,1.542,1.541-.134,1.706,27.413,30.667,2.832.272.299,3.176,3.03,3.52h-12.853l-.438-2.011.438-3.059-25.944-29.035-2.259-.706-1.587,1.218v33.376s-47.95,0-47.95,0v-33.888l-1.587-.706-2.259.706-26.823,29.365,1.418,2.206-1.007,1.66-12.385.876,3.03-3.52.299-3.176,2.832-.272,27.413-30.667.518-2.776,3.113.476,1.028-2.264v-17.035s2.824,0,2.824,0v-4.365h-10.779l-2.572-56.479-20.992,3.308-36.766,8.351-39.306,3.599s-25.398-4.575-37.105-7.222c-15.308-3.461-24.657-3.91-32.435-17.073-30.771-52.076,93.755-144.683,93.755-144.683l.711-17.295s-.832-2.037.12-3.702,4.389-3.909,4.389-3.909l-4.958-8.061c-2.006-3.261,6.043-7.826,6.043-7.826l4.22-2.221ZM1052.954,928.562l5.953,6.047,31.801-25.111,1.818-12.207h-3.888l-44.292,13.459,8.609,17.812ZM1065.777,952.889l1.198,2.076h8.047l2.682-4.826-11.927,2.75Z" fill="#046492"/>
    <rect x="995.386" y="1038.614" width="133.236" height="7.057" fill="#046492"/>
    <path d="M448.719,412.125l9.406-1.1,11.49,17.936,8.943-3.747,7.642-.277,2.473,4.021,31.793,12.642c212.552-97.694,309.235-70.023,324.885-58.178s19.54,33.145,19.54,33.145l-16.543,144.397-31.222,62.554-45.741,52.712-37.119,43.866,6.231,29.024h9.683l-2.085,33.371-1.703,10.714,5.941,8.09-10.348,23.145-7.718,8.266-4.235,85.845h-28.942l1.231,8.729h5.647v37.165l6.5-.459,3.085,3.083-.267,3.411,54.825,61.335,5.665.544.598,6.352,6.06,7.039h-25.707l-.876-4.023.876-6.118-51.888-58.07-4.518-1.412-3.174,2.435v66.752s-95.899,0-95.899,0v-67.775l-3.174-1.412-4.518,1.412-53.647,58.729,2.836,4.411-2.014,3.319-24.77,1.751,6.06-7.039.598-6.352,5.665-.544,54.825-61.335,1.035-5.553,6.226.951,2.056-4.528v-34.071s5.647,0,5.647,0v-8.729h-21.559l-5.145-112.958-41.985,6.615-73.531,16.702-78.612,7.197s-50.795-9.151-74.21-14.444c-30.616-6.921-49.314-7.821-64.869-34.146-61.541-104.151,187.51-289.366,187.51-289.366l1.422-34.589s-1.663-4.073.239-7.404,8.778-7.818,8.778-7.818l-9.916-16.121c-4.012-6.522,12.085-15.652,12.085-15.652l8.44-4.442ZM633.094,825.647l11.906,12.093,63.601-50.222,3.635-24.413h-7.776l-88.585,26.918,17.219,35.624ZM658.74,874.3l2.396,4.153h16.094l5.365-9.653-23.855,5.5Z" fill="#0d7f97"/>
    <rect x="517.959" y="1045.751" width="266.472" height="14.113" fill="#0d7f97"/>
  </g>
  <g id="Layer_1">
    <path d="M648.495,918.552" fill="#fff"/>
    <path d="M763.683,1045.316c-2.084-.105-4.975-1.151-5.835-3.587-1.129-3.2,2.635-5.459,2.635-5.459l-53.647-58.729s-2.808-.214-4.518-2.412c-1.976-2.541-2.016-3.988,3.227-8.882,0,0,7.596-4.8,10.702-1.318,2.71,3.039,1.035,5.553,1.035,5.553l54.825,61.335s3.971-2.28,5.665.544c1.271,2.118,1.828,4.334.598,6.352" fill="none" stroke="#000" stroke-linejoin="bevel" stroke-width="2"/>
    <polyline points="702.088 918.552 702.319 927.281 707.966 927.281 707.966 963.987" fill="none" stroke="#000" stroke-linejoin="bevel" stroke-width="2"/>
    <rect x="517.959" y="1045.751" width="266.472" height="12.542" fill="none" stroke="#000" stroke-linejoin="bevel" stroke-width="2"/>
    <path d="M595.541,783.32" fill="none" stroke="#000" stroke-linejoin="bevel" stroke-width="2"/>
    <path d="M488.673,428.958l-2.473-4.021s-6.854-3.95-33.564,12.48c-26.71,16.429-25.598,23.911-25.598,23.911l2.055,2.235" fill="none" stroke="#000" stroke-linejoin="bevel" stroke-width="2"/>
    <path d="M487.763,449.575c-4.194,1.459-9.569,3.874-16.297,7.826-5.094,2.992-8.975,5.526-8.975,5.526-8.841,5.767-14.059,10.544-17.13,14.088" fill="none" stroke="#000" stroke-linejoin="bevel" stroke-width="2"/>
    <path d="M469.615,428.962l-9.916-16.121s-3.667-5.962-19.42,3.727-12.085,15.652-12.085,15.652l9.916,16.121" fill="none" stroke="#000" stroke-linejoin="bevel" stroke-width="2"/>
    <line x1="461.175" y1="476.767" x2="458.228" y2="471.977" fill="none" stroke="#000" stroke-linejoin="bevel" stroke-width="2"/>
    <line x1="481.637" y1="457.578" x2="484.584" y2="462.369" fill="none" stroke="#000" stroke-linejoin="bevel" stroke-width="2"/>
    <polygon points="763.683 1037.964 776.107 1036.081 784.431 1045.751 763.683 1045.751 763.683 1037.964" fill="none" stroke="#000" stroke-linejoin="bevel" stroke-width="2"/>
    <path d="M670.888,1045.316s.522-2.185,1.67-4.635c1.714-3.658-1.784-5.571-1.784-5.571l27.915-57.569s2.824,1.976,3.63-1.412,0-3.859-7.341-8.753c0,0-8.067-3.388-10.165.941-1.457,3.007,1.15,5.647,1.15,5.647l-28.255,58.07s-3.731,1-5.025,2.859c-1.228,1.763-2.858,4.005-.763,6.023" fill="none" stroke="#000" stroke-linejoin="bevel" stroke-width="2"/>
    <polygon points="667.737 1037.964 651.195 1035.61 651.295 1045.751 671.075 1045.751 667.737 1037.964" fill="none" stroke="#000" stroke-linejoin="bevel" stroke-width="2"/>
    <polygon points="694.789 961.352 707.025 961.352 707.966 963.987 700.92 970.408 690.324 965.514 694.789 961.352" fill="none" stroke="#000" stroke-linejoin="bevel" stroke-width="2"/>
    <line x1="694.789" y1="961.352" x2="650.327" y2="961.352" fill="none" stroke="#000" stroke-linejoin="bevel" stroke-width="2"/>
    <path d="M538.707,1045.316c2.084-.105,4.975-1.151,5.835-3.587,1.129-3.2-2.635-5.459-2.635-5.459l53.647-58.729s2.808-.214,4.518-2.412c1.976-2.541,2.016-3.988-3.227-8.882,0,0-7.596-4.8-10.702-1.318-2.71,3.039-1.035,5.553-1.035,5.553l-54.825,61.335s-3.971-2.28-5.665.544c-1.271,2.118-1.828,4.334-.598,6.352" fill="none" stroke="#000" stroke-linejoin="bevel" stroke-width="2"/>
    <polyline points="600.072 918.552 600.072 927.281 594.425 927.281 594.425 963.987" fill="none" stroke="#000" stroke-linejoin="bevel" stroke-width="2"/>
    <polygon points="538.707 1037.964 526.284 1036.081 517.959 1045.751 538.707 1045.751 538.707 1037.964" fill="none" stroke="#000" stroke-linejoin="bevel" stroke-width="2"/>
    <path d="M631.502,1045.316s-.522-2.185-1.67-4.635c-1.714-3.658,1.784-5.571,1.784-5.571l-27.915-57.569s-2.824,1.976-3.63-1.412,0-3.859,7.341-8.753c0,0,8.067-3.388,10.165.941,1.457,3.007-1.15,5.647-1.15,5.647l28.255,58.07s3.731,1,5.025,2.859c1.228,1.763,2.858,4.005.763,6.023" fill="none" stroke="#000" stroke-linejoin="bevel" stroke-width="2"/>
    <polygon points="634.653 1037.964 651.195 1035.61 651.095 1045.751 631.316 1045.751 634.653 1037.964" fill="none" stroke="#000" stroke-linejoin="bevel" stroke-width="2"/>
    <polygon points="607.601 961.352 595.366 961.352 594.425 963.987 601.47 970.408 612.066 965.514 607.601 961.352" fill="none" stroke="#000" stroke-linejoin="bevel" stroke-width="2"/>
    <line x1="607.601" y1="961.352" x2="652.064" y2="961.352" fill="none" stroke="#000" stroke-linejoin="bevel" stroke-width="2"/>
    <polygon points="655.907 1032.128 651.295 1036.081 646.683 1032.128 646.683 961.218 655.907 961.218 655.907 1032.128" fill="none" stroke="#000" stroke-linejoin="bevel" stroke-width="2"/>
    <line x1="603.246" y1="977.54" x2="603.246" y2="1045.316" fill="none" stroke="#000" stroke-linejoin="bevel" stroke-width="2"/>
    <line x1="699.145" y1="977.54" x2="699.145" y2="1045.316" fill="none" stroke="#000" stroke-linejoin="bevel" stroke-width="2"/>
    <path d="M499.892,450.562c-1.327,2.415.732.969-3.741,4.69" fill="none" stroke="#000" stroke-linejoin="bevel" stroke-width="2"/>
    <path d="M450.608,481.309c-4.513,1.972-2.795,1.408-5.578,1.847" fill="none" stroke="#000" stroke-linejoin="bevel" stroke-width="2"/>
    <path d="M481.905,458.014c-.617-1.004-4.101.12-8.663,2.269-2.191,1.032-7.493,4.396-8.971,5.538-3.91,3.019-6.384,5.601-5.775,6.592" fill="none" stroke="#000" stroke-linejoin="bevel" stroke-width="2"/>
    <path d="M468.955,726.28" fill="none" stroke="#000" stroke-linejoin="bevel" stroke-width="2"/>
    <polyline points="663.921 654.999 704.254 678.698 755.724 631.324 719.22 572.487 673.427 616.676 624.974 590.597 586.016 644.272 515.415 651.312" fill="none" stroke="#000" stroke-linejoin="bevel" stroke-width="2"/>
    <polyline points="556.114 716.687 622.281 712.932 663.921 654.999 627.051 594.081" fill="none" stroke="#000" stroke-linejoin="bevel" stroke-width="2"/>
    <polyline points="755.724 631.324 746.169 686.101 771.385 676.23 734.266 720.096 746.169 686.101 704.62 679.255 622.281 712.932 559.752 765.815 567.851 788.989 499.519 788.357 460.365 719.487 523.669 690.879 515.415 651.312 556.114 716.687 559.752 765.815 497.478 784.381" fill="none" stroke="#000" stroke-linejoin="bevel" stroke-width="2"/>
    <path d="M548.642,725.76" fill="none" stroke="#000" stroke-linejoin="bevel" stroke-width="2"/>
    <polyline points="475.001 426.245 506.936 441.791 514.832 444.498 518.988 443.043 511.856 440.64 480.381 425.214 475.001 426.245 487.79 449.625 503.166 450.503 513.523 445.43" fill="none" stroke="#000" stroke-linejoin="bevel" stroke-width="2"/>
    <polygon points="432.221 452.796 446.815 475.421 444.071 484.997 430.994 495.881 432.221 452.796" fill="none" stroke="#000" stroke-linejoin="bevel" stroke-width="2"/>
    <polyline points="429.349 456.159 427.67 498.153 430.994 495.881" fill="none" stroke="#000" stroke-linejoin="bevel" stroke-width="2"/>
    <line x1="446.815" y1="475.421" x2="444.071" y2="484.997" fill="none" stroke="#000" stroke-linejoin="bevel" stroke-width="2"/>
    <path d="M493.137,787.518c-67.71,20.234-207.335,44.154-238.524,16.72-34.289-30.16-67.96-105.942,150.739-288.144,154.465-128.688,412.414-175.86,449.257-124.256,28.488,39.901-6.986,140.589-98.884,233.753" fill="none" stroke="#000" stroke-linejoin="bevel" stroke-width="2"/>
    <polygon points="578.513 918.552 571.401 756.113 582.854 746.862 591.425 746.862 599.714 774.807 648.495 918.552 578.513 918.552" fill="none" stroke="#000" stroke-linejoin="bevel" stroke-width="2"/>
    <polyline points="649.064 857.564 676.176 846.195 702.142 819.576 713.36 799.283 731.43 800.224" fill="none" stroke="#000" stroke-linejoin="bevel" stroke-width="2"/>
    <line x1="711.113" y1="790.023" x2="713.36" y2="799.283" fill="none" stroke="#000" stroke-linejoin="bevel" stroke-width="2"/>
    <path d="M746.603,749.12h3.576c-.622,19.761,4.686,104.501-91.439,125.179" fill="none" stroke="#000" stroke-linejoin="bevel" stroke-width="2"/>
    <polyline points="746.391 793.205 748.107 793.505 752.332 801.295 741.983 824.44 716.76 852.329 689.776 863.489" fill="none" stroke="#000" stroke-linejoin="bevel" stroke-width="2"/>
    <line x1="752.332" y1="801.295" x2="743.857" y2="801.295" fill="none" stroke="#000" stroke-linejoin="bevel" stroke-width="2"/>
    <polygon points="573.368 805.594 572.6 793.619 567.851 788.989 531.384 812.209 573.368 805.594" fill="none" stroke="#000" stroke-linejoin="bevel" stroke-width="2"/>
    <line x1="531.384" y1="812.209" x2="520.466" y2="788.357" fill="none" stroke="#000" stroke-linejoin="bevel" stroke-width="2"/>
    <path d="M716.76,685.9l-1.027,12.261,12.865,50.96h11.9l-10.286-47.599c-.12-.554-.276-1.1-.468-1.633l-5.661-15.752-7.321,1.764Z" fill="none" stroke="#000" stroke-linejoin="bevel" stroke-width="2"/>
    <polyline points="727.012 681.963 710.924 681.963 616.077 740.772 605.805 756.113 621.911 752.591 713.36 696.282" fill="none" stroke="#000" stroke-linejoin="bevel" stroke-width="2"/>
    <polyline points="643.684 845.585 711.113 790.023 729.442 791.846 731.43 800.224 722.407 824.44 696.145 852.093 660.289 866.823 655.063 866.823" fill="none" stroke="#000" stroke-linejoin="bevel" stroke-width="2"/>
    <path d="M658.135,872.315c74.967-19.311,88.256-62.462,88.256-123.194h-15.812l-7.419,27.161-78.16,61.459-12.346-13.003" fill="none" stroke="#000" stroke-linejoin="bevel" stroke-width="2"/>
    <polyline points="734.266 836.109 730.03 918.552 648.495 918.552" fill="none" stroke="#000" stroke-linejoin="bevel" stroke-width="2"/>
    <polyline points="716.76 852.329 710.261 878.452 661.082 878.104 605.151 773.274 599.065 746.277 582.854 746.277" fill="none" stroke="#000" stroke-linejoin="bevel" stroke-width="2"/>
    <line x1="615.875" y1="788.989" x2="704.46" y2="763.105" fill="none" stroke="#000" stroke-linejoin="bevel" stroke-width="2"/>
    <path d="M626.554,749.12h94.5s2.859,2.437,2.859,5.952c0,6.715-2.859,8.033-2.859,8.033h-117.945l-3.403-13.985h10.312" fill="none" stroke="#000" stroke-linejoin="bevel" stroke-width="2"/>
    <polyline points="621.911 714.922 615.31 741.668 601.392 740.162 602.827 749.12 610.018 749.12 616.077 740.772" fill="none" stroke="#000" stroke-linejoin="bevel" stroke-width="2"/>
    <polyline points="713.36 749.12 718.172 746.862 718.998 743.529 723.913 743.529 725.795 749.12 727.349 758.588" fill="none" stroke="#000" stroke-linejoin="bevel" stroke-width="2"/>
    <line x1="712.236" y1="763.105" x2="708.601" y2="787.518" fill="none" stroke="#000" stroke-linejoin="bevel" stroke-width="2"/>
    <polyline points="693.419 749.12 658.74 729.529 668.908 722.351 708.601 746.862 708.601 699.179" fill="none" stroke="#000" stroke-linejoin="bevel" stroke-width="2"/>
    <polyline points="645 722.351 629.533 711.029 640.783 706.428 658.74 715.82" fill="none" stroke="#000" stroke-linejoin="bevel" stroke-width="2"/>
    <polyline points="864.891 437.859 845.806 563.668 817.126 623.518 770.724 677.681 752.852 645.455" fill="none" stroke="#000" stroke-linejoin="bevel" stroke-width="2"/>
    <polyline points="531.384 812.209 457.852 828.912 380.299 836.109 282.979 817.433" fill="none" stroke="#000" stroke-linejoin="bevel" stroke-width="2"/>
    <polyline points="379.24 836.109 354.502 801.295 320.815 772.799 364.666 744.301 396.13 693.996 423.876 620.589 495.653 598.202 578.89 545.216 633.778 490.836 701.936 495.336 775.522 483.764 810.506 463.191 839.865 509.365 848.348 546.393" fill="none" stroke="#000" stroke-linejoin="bevel" stroke-width="2"/>
    <polyline points="457.852 828.912 408.996 774.271 488.673 662.478 649.136 572.261 782.83 552.847 818.971 617.788" fill="none" stroke="#000" stroke-linejoin="bevel" stroke-width="2"/>
    <line x1="723.913" y1="743.529" x2="727.349" y2="742.776" fill="none" stroke="#000" stroke-linejoin="bevel" stroke-width="2"/>
    <line x1="601.392" y1="740.162" x2="604.262" y2="728.172" fill="none" stroke="#000" stroke-linejoin="bevel" stroke-width="2"/>
    <polyline points="719.301 716.628 719.301 739.199 717.042 749.12 708.601 746.862" fill="none" stroke="#000" stroke-linejoin="bevel" stroke-width="2"/>
    <line x1="615.875" y1="763.105" x2="606.846" y2="770.635" fill="none" stroke="#000" stroke-linejoin="bevel" stroke-width="2"/>
    <line x1="677.23" y1="877.331" x2="683.671" y2="866.823" fill="none" stroke="#000" stroke-linejoin="bevel" stroke-width="2"/>
    <line x1="610.018" y1="779.318" x2="668.334" y2="763.105" fill="none" stroke="#000" stroke-linejoin="bevel" stroke-width="2"/>
    <line x1="618.113" y1="742.588" x2="621.078" y2="749.12" fill="none" stroke="#000" stroke-linejoin="bevel" stroke-width="2"/>
  </g>
</svg>