<?xml version="1.0" encoding="UTF-8"?>
<svg xmlns="http://www.w3.org/2000/svg" xmlns:inkscape="http://www.inkscape.org/namespaces/inkscape" version="1.1" viewBox="0 0 1296 1296">
  <!-- Generator: Adobe Illustrator 30.0.0, SVG Export Plug-In . SVG Version: 2.1.1 Build 123)  -->
  <g id="Layer_2">
    <polygon points="904.985 446.074 936.214 461.746 967.444 477.419 940.768 491.908 926.789 476.653 903.263 450.296 904.985 446.074" fill="#046492"/>
    <path d="M733.155,354.241c68.052-180.986,21.452-223.178-11.154-249.517-19.413-15.682-59.836-45.143-158.654-1.937-67.157,29.363-174.35,92.031-269.51,216.398-251.593,328.815-142.876,432.545-133.061,441.2-2.887,14.092-39.474,191.033,152.527,344.276,202.411,161.552,548.207,142.973,719.09-11.347s147.911-314.419,130.898-371.922c32.08-72.408,58.642-196.794,6.961-241.454s-92.181-59.023-229.484,11.97c-109.808-72.332-207.613-137.667-207.613-137.667Z" fill="#0d7f97"/>
    <path d="M940.768,491.908s-84.633,54.651-127.909,96.705c-79.704-119.848-280.977-268.263-280.977-268.263l232.376-.765,16.661,8.355-28.257,13.62-59.719,1.438,40.212,11.243,5.809,1.49,12.799-13.416,25.456-14.375,15.185-.226,12.99,5.515,85.707,80.139,17.731,11.079.821,8.511-6.39,17.338-22.541-15.933-67.638-62.109,6.426,19.047,22.09,11.08,63.385,47.915,35.783,41.612Z" fill="#3ca9c8"/>
  </g>
  <g id="Layer_1">
    <g id="ViewLayer_LineSet">
      <g id="strokes" inkscape:groupmode="layer" inkscape:label="strokes">
        <path d="M708.483,346.945l-.061-1.219c-.196-.051-5.345-1.404-5.32-1.397l-.46,1.128" fill="none" stroke="#000" stroke-linecap="round" stroke-width="2"/>
        <path d="M928.703,476.653l1.077-2.642-3.089-3.425-2.867.403" fill="none" stroke="#000" stroke-linecap="round" stroke-width="2"/>
        <path d="M855.023,412.708l.628-1.54-4.193-2.724-.32-.207-1.428.947" fill="none" stroke="#000" stroke-linecap="round" stroke-width="2"/>
        <path d="M703.102,344.329l.063,1.256" fill="none" stroke="#000" stroke-linecap="round" stroke-width="2"/>
        <path d="M738.964,356.134c-15.003-5.052-30.61-9.435-46.021-13.053" fill="none" stroke="#000" stroke-linecap="round" stroke-width="2"/>
        <path d="M863.691,418.567c-14.147-9.754-29.038-19.13-44.181-27.266" fill="none" stroke="#000" stroke-linecap="round" stroke-width="2"/>
        <path d="M940.768,491.908c-12.333-16.946-27.018-32.456-42.744-46.286" fill="none" stroke="#000" stroke-linecap="round" stroke-width="2"/>
        <path d="M665.081,345.424c4.484.819,10.174,1.861,14.639,2.677" fill="none" stroke="#000" stroke-linecap="round" stroke-width="2"/>
        <path d="M768.133,375.18c4.331,1.872,10.039,4.336,14.366,6.207" fill="none" stroke="#000" stroke-linecap="round" stroke-width="2"/>
        <path d="M837.012,410.265c3.756,2.406,8.894,5.696,12.649,8.104" fill="none" stroke="#000" stroke-linecap="round" stroke-width="2"/>
        <path d="M861.844,426.781c7.566,5.52,15.506,11.653,22.741,17.596" fill="none" stroke="#000" stroke-linecap="round" stroke-width="2"/>
        <path d="M922.562,481.817c-2.46-2.776-6.014-6.788-8.464-9.554" fill="none" stroke="#000" stroke-linecap="round" stroke-width="2"/>
        <path d="M758.784,368.841c6.801,5.063,21.214,10.236,28.417,3.888" fill="none" stroke="#000" stroke-linecap="round" stroke-width="2"/>
        <path d="M774.695,373.055l-3.88-.899" fill="none" stroke="#000" stroke-linecap="round" stroke-width="2"/>
        <path d="M782.82,368.383l-1.901.993" fill="none" stroke="#000" stroke-linecap="round" stroke-width="2"/>
        <path d="M769.226,368.481c-1.794-.731-4.822-2.201-6.315-3.45" fill="none" stroke="#000" stroke-linecap="round" stroke-width="2"/>
        <path d="M772.512,364.3c2.169.755,5.371,1.427,7.589,1.957,1.491.425,3.34,1.54,4.847,1.892,2.578.808,5.454,3.194,8.268,2.262" fill="none" stroke="#000" stroke-linecap="round" stroke-width="2"/>
        <path d="M749.494,324.87c-3.215,1.541-3.326,5.889-2.174,8.819,1.228,2.599,4.22,5.575,5.342,8.219" fill="none" stroke="#000" stroke-linecap="round" stroke-width="2"/>
        <path d="M761.775,362.883c.899.427,2.693.286,3.657.302,2.257.334,4.897.332,7.08,1.115,2.02-3.278,4.508-7.358,6.493-10.636" fill="none" stroke="#000" stroke-linecap="round" stroke-width="2"/>
        <path d="M792.404,327.714c-3.449.084-8.054.26-11.434.659" fill="none" stroke="#000" stroke-linecap="round" stroke-width="2"/>
        <path d="M789.463,332.379c1.974-.07,6.315-.224,8.251-.292" fill="none" stroke="#000" stroke-linecap="round" stroke-width="2"/>
        <path d="M799.37,334.731c-1.912.067-4.919.175-6.807.24-.229-.191-2.796-2.338-3.1-2.592" fill="none" stroke="#000" stroke-linecap="round" stroke-width="2"/>
        <path d="M780.485,328.266c-3.687-2.423-8.865-4.721-12.854-6.647" fill="none" stroke="#000" stroke-linecap="round" stroke-width="2"/>
        <path d="M770.637,334.699l.124-1.737" fill="none" stroke="#000" stroke-linecap="round" stroke-width="2"/>
        <path d="M772.001,327.794c-.632.219-2.269.787-2.92,1.013-2.503-1.201-7.024-3.376-9.524-4.576" fill="none" stroke="#000" stroke-linecap="round" stroke-width="2"/>
        <path d="M766.731,333.229c-.552.701-1.672,1.262-2.418,1.697-.926.545-4.548,2.669-5.436,3.192-3.556,2.07-8.197,4.371-10.089,8.244" fill="none" stroke="#000" stroke-linecap="round" stroke-width="2"/>
        <path d="M777.742,341.957c-2.262-1.128-5.027-3.163-6.38-5.336" fill="none" stroke="#000" stroke-linecap="round" stroke-width="2"/>
        <path d="M772.704,341.859c-1.379.809-5.029,2.952-6.356,3.732" fill="none" stroke="#000" stroke-linecap="round" stroke-width="2"/>
        <path d="M788.806,343.43c-.431.081-1.894.36-2.349.446" fill="none" stroke="#000" stroke-linecap="round" stroke-width="2"/>
        <path d="M783.679,343.766l-2.988-.658" fill="none" stroke="#000" stroke-linecap="round" stroke-width="2"/>
        <path d="M805.394,353.25c-3.075-4.004-6.639-8.621-9.868-12.462" fill="none" stroke="#000" stroke-linecap="round" stroke-width="2"/>
        <path d="M791.496,341.055l.836-2.05.064-.157s.124-1.736.124-1.736c-.032-.082-.692-1.835-.726-1.924-2.06-3.182-5.803-5.309-9.329-6.486-4.945-1.201-10.096-1.725-11.704,4.26" fill="none" stroke="#000" stroke-linecap="round" stroke-width="2"/>
        <path d="M784.577,341.56c-1.724-.274-4.332-1.081-5.938-1.81" fill="none" stroke="#000" stroke-linecap="round" stroke-width="2"/>
        <path d="M772.263,334.417l-.726-1.925c.029-.418.093-1.312.124-1.735" fill="none" stroke="#000" stroke-linecap="round" stroke-width="2"/>
        <path d="M794.586,369.424c.742-.954,1.243-2.383,1.403-3.559" fill="none" stroke="#000" stroke-linecap="round" stroke-width="2"/>
        <path d="M808.575,358.989c-.199-.884-.824-2.57-1.385-3.285" fill="none" stroke="#000" stroke-linecap="round" stroke-width="2"/>
        <path d="M793.086,345.431l-.172,4.559" fill="none" stroke="#000" stroke-linecap="round" stroke-width="2"/>
        <path d="M765.594,353.709c-.382.383-1.207,1.212-1.582,1.589" fill="none" stroke="#000" stroke-linecap="round" stroke-width="2"/>
        <path d="M762.661,357.115c-.788,1.328-1.709,3.307-1.443,4.895" fill="none" stroke="#000" stroke-linecap="round" stroke-width="2"/>
        <path d="M764.091,330.485c-2.33-1.118-6.281-3.019-8.583-4.123-1.768-.869-3.982-2.161-6.014-1.492" fill="none" stroke="#000" stroke-linecap="round" stroke-width="2"/>
        <path d="M802.317,349.278c2.739-2.034,5.724-5.508,5.377-9.13l-.594-.835-1.056-.258" fill="none" stroke="#000" stroke-linecap="round" stroke-width="2"/>
        <path d="M799.775,371.961c-2.979,1.16-7.092,2.76-10.009,4.065" fill="none" stroke="#000" stroke-linecap="round" stroke-width="2"/>
        <path d="M800.768,374.588c.588-.223,1.773-.668,2.362-.887l-1.22.423" fill="none" stroke="#000" stroke-linecap="round" stroke-width="2"/>
        <path d="M796.947,360.988c-.394-.995-1.336-2.63-2.008-3.457" fill="none" stroke="#000" stroke-linecap="round" stroke-width="2"/>
        <path d="M811.755,370.775c.172-.07.918-.373,1.104-.449-1.225-3.239-3.066-8.112-4.284-11.337-.958-2.953-2.66-6.059-5.516-7.534" fill="none" stroke="#000" stroke-linecap="round" stroke-width="2"/>
        <path d="M793.594,356.209l-1.484-.956" fill="none" stroke="#000" stroke-linecap="round" stroke-width="2"/>
        <path d="M789.615,379.118l1.143-.465-.029.046" fill="none" stroke="#000" stroke-linecap="round" stroke-width="2"/>
        <path d="M785.563,368.391c1.195,3.167,2.861,7.573,4.052,10.727l1.125-.39" fill="none" stroke="#000" stroke-linecap="round" stroke-width="2"/>
        <path d="M790.729,378.699c21.708,57.438,43.458,114.99,65.165,172.428" fill="none" stroke="#000" stroke-linecap="round" stroke-width="2"/>
        <path d="M810.647,368.122c-2.779.781-5.789,1.972-8.51,2.952" fill="none" stroke="#000" stroke-linecap="round" stroke-width="2"/>
        <path d="M758.294,339.705c-2.098.242-4.009,1.655-5.553,3.008-2.958,2.729-7.031,6.491-9.98,9.213.052.18.186.652.237.826" fill="none" stroke="#000" stroke-linecap="round" stroke-width="2"/>
        <path d="M743.486,352.827l.569.182c-.351-.294-.948-.793-1.294-1.083" fill="none" stroke="#000" stroke-linecap="round" stroke-width="2"/>
        <path d="M767.306,350.278c.634-.334,1.898-.788,2.613-.851" fill="none" stroke="#000" stroke-linecap="round" stroke-width="2"/>
        <path d="M678.446,442.302c26.888-24.837,53.945-49.768,80.816-74.622-.118-.968-1.059-3.767-1.279-4.683-.201-.867-.851-1.661-1.364-2.365" fill="none" stroke="#000" stroke-linecap="round" stroke-width="2"/>
        <path d="M756.544,370.206l.399.335c2.319-2.141,5.653-5.219,7.968-7.356" fill="none" stroke="#000" stroke-linecap="round" stroke-width="2"/>
        <path d="M764.366,352.435c-3.118,2.879-6.875,6.346-9.98,9.214" fill="none" stroke="#000" stroke-linecap="round" stroke-width="2"/>
        <path d="M754.386,361.649l.237.826c-.427-.563-1.074-1.369-1.532-1.909.176.147,1.141.955,1.295,1.083" fill="none" stroke="#000" stroke-linecap="round" stroke-width="2"/>
        <path d="M755.087,358.723c-2.561-2.863-5.504-5.923-9.036-7.557" fill="none" stroke="#000" stroke-linecap="round" stroke-width="2"/>
        <path d="M768.576,322.615c-1.051-1.289-2.7-2.562-4.318-3.03-3.358-.403-8.557.103-11.942.077" fill="none" stroke="#000" stroke-linecap="round" stroke-width="2"/>
        <path d="M754.853,324.004c.889.524,2.11,1.607,2.775,2.408" fill="none" stroke="#000" stroke-linecap="round" stroke-width="2"/>
        <path d="M743.347,326.238c.076-.297.253-.888.353-1.177.744,4.4,1.701,10.083,2.445,14.481" fill="none" stroke="#000" stroke-linecap="round" stroke-width="2"/>
        <path d="M744.059,339.595l.279,1.653c1.835-.046,6.11-.154,7.899-.199" fill="none" stroke="#000" stroke-linecap="round" stroke-width="2"/>
        <path d="M743.23,327.065l.055.847" fill="none" stroke="#000" stroke-linecap="round" stroke-width="2"/>
        <path d="M744.866,337.278l.221.789" fill="none" stroke="#000" stroke-linecap="round" stroke-width="2"/>
        <path d="M751.763,323.197c-3.035.077-7.425.187-10.428.263l1.219-.423" fill="none" stroke="#000" stroke-linecap="round" stroke-width="2"/>
        <path d="M741.335,323.46l.279,1.653" fill="none" stroke="#000" stroke-linecap="round" stroke-width="2"/>
        <path d="M753.15,320.032c-1.549-1.109-4.707-.832-6.518-.775-4.47.114-10.531.266-14.995.38-15.602.396-31.663.802-47.265,1.198-46.858,1.188-93.874,2.379-140.731,3.567" fill="none" stroke="#000" stroke-linecap="round" stroke-width="2"/>
        <path d="M543.641,324.402l-1.447.074" fill="none" stroke="#000" stroke-linecap="round" stroke-width="2"/>
        <path d="M540.789,324.964c-.201.144-1.434.919-1.538,1.124" fill="none" stroke="#000" stroke-linecap="round" stroke-width="2"/>
        <path d="M566.938,346.231c41.597-1.041,83.366-2.083,124.962-3.124,13.258-.331,27.071-.679,40.33-1.008,6.358-.378,13.849.112,20.125-.806" fill="none" stroke="#000" stroke-linecap="round" stroke-width="2"/>
        <path d="M546.255,324.336l-.673-3.986c-4.102.204-9.643.025-13.7.498" fill="none" stroke="#000" stroke-linecap="round" stroke-width="2"/>
        <path d="M545.582,320.35c-2.275.788-6.856,2.378-9.123,3.165.018.103.094.556.113.668" fill="none" stroke="#000" stroke-linecap="round" stroke-width="2"/>
        <path d="M810.331,343.152l1.102-1.291c-4.383-4.239-9.941-8.703-14.603-12.623-2.157-2.125-3.404-2.228-6.062-.798" fill="none" stroke="#000" stroke-linecap="round" stroke-width="2"/>
        <path d="M899.84,431.49c1.715-1.555,1.857-3.453,1.597-5.625" fill="none" stroke="#000" stroke-linecap="round" stroke-width="2"/>
        <path d="M806.918,337.675c-.496-.375-1.254-.519-1.86-.492" fill="none" stroke="#000" stroke-linecap="round" stroke-width="2"/>
        <path d="M803.795,337.495l-1.402.668" fill="none" stroke="#000" stroke-linecap="round" stroke-width="2"/>
        <path d="M880.441,434.093c1.832,1.844,4.569,2.874,7.155,2.84" fill="none" stroke="#000" stroke-linecap="round" stroke-width="2"/>
        <path d="M890.053,439.209c2.224-.123,4.034-.534,5.333-2.5" fill="none" stroke="#000" stroke-linecap="round" stroke-width="2"/>
        <path d="M908.372,430.567c.446-1.46.697-3.521.141-4.981-1.209-1.842-4.59-4.453-6.109-6.01l-3.245,3.804-.178.208c-.273-1.782-1.292-3.948-2.532-5.262" fill="none" stroke="#000" stroke-linecap="round" stroke-width="2"/>
        <path d="M896.449,418.326c-21.275-19.722-42.743-39.622-64.019-59.344-7.14-6.618-14.86-13.777-22.001-20.395-2.408-2.256-6.084-6.253-9.764-6.141" fill="none" stroke="#000" stroke-linecap="round" stroke-width="2"/>
        <path d="M808.59,337.898l-1.065-1.82" fill="none" stroke="#000" stroke-linecap="round" stroke-width="2"/>
        <path d="M895.386,436.709c.236-.354.713-1.069.949-1.423" fill="none" stroke="#000" stroke-linecap="round" stroke-width="2"/>
        <path d="M897.417,433.912c.559-.65,1.771-1.866,2.423-2.422" fill="none" stroke="#000" stroke-linecap="round" stroke-width="2"/>
        <path d="M902.404,419.576c-2.805-2.348-6.893-5.764-9.688-8.102l-1.615,1.894" fill="none" stroke="#000" stroke-linecap="round" stroke-width="2"/>
        <path d="M874.486,432.842c2.971,2.487,6.701,5.604,9.688,8.103" fill="none" stroke="#000" stroke-linecap="round" stroke-width="2"/>
        <path d="M903.263,450.296c1.897-4.86,4.562-10.724,6.246-15.653.224-1.087.294-2.637-.483-3.536-.399-.364-3.279-2.685-3.747-3.097" fill="none" stroke="#000" stroke-linecap="round" stroke-width="2"/>
        <path d="M901.518,427.724c1.143-.524,2.825-.726,3.761.286" fill="none" stroke="#000" stroke-linecap="round" stroke-width="2"/>
        <path d="M889.082,445.439c.971.813,2.882,2.412,3.874,3.242.852-.296,2.719-.944,3.555-1.234" fill="none" stroke="#000" stroke-linecap="round" stroke-width="2"/>
        <path d="M876.52,430.458l-2.034,2.384c4.845,4.581,10.275,9.273,15.525,13.375" fill="none" stroke="#000" stroke-linecap="round" stroke-width="2"/>
        <path d="M892.956,448.681c1.028-2.516,2.213-5.428,3.24-7.942" fill="none" stroke="#000" stroke-linecap="round" stroke-width="2"/>
        <path d="M875.607,433.881l-.088.215c.484.404,2.744,2.296,3.273,2.738" fill="none" stroke="#000" stroke-linecap="round" stroke-width="2"/>
        <path d="M433.899,265.656c41.208-34.101,88.403-65.968,140.372-80.493,28.527-7.857,62.249-10.019,87.283,8.317" fill="none" stroke="#000" stroke-linecap="round" stroke-width="2"/>
        <path d="M673.009,204.633c-3.203-3.825-7.548-8.063-11.455-11.153" fill="none" stroke="#000" stroke-linecap="round" stroke-width="2"/>
        <path d="M687.584,301.647c3.675-21.621,4.958-44.272-.004-65.793" fill="none" stroke="#000" stroke-linecap="round" stroke-width="2"/>
        <path d="M681.713,218.825c-.969-1.808-3.048-5.686-4.001-7.465" fill="none" stroke="#000" stroke-linecap="round" stroke-width="2"/>
        <path d="M147.37,722.243c.981,3.372,2.445,8.408,3.422,11.767" fill="none" stroke="#000" stroke-linecap="round" stroke-width="2"/>
        <path d="M733.155,354.241c1.506-3.649,3.715-8.61,5.087-12.293" fill="none" stroke="#000" stroke-linecap="round" stroke-width="2"/>
        <path d="M160.776,760.385c-2.284,15.82-3.095,32.184-2.843,48.154-.218,18.348.973,37.079,3.975,55.19,7.046,45.727,24.195,89.932,48.734,129.097,61.484,99.162,165.463,165.708,275.669,199.143,149.968,44.399,317.607,32.347,457.027-39.817,52.302-27.085,100.46-63.176,139.099-107.776,18.228-20.468,33.94-43.383,47.762-67.016,4.067-8.349,9.104-17.16,12.714-25.726,5.203-11.5,9.955-23.808,13.999-35.766,5.992-18.575,10.845-37.989,13.412-57.356,1.042-7.161,2.16-15.323,2.427-22.571.549-7.457,1.069-15.688.855-23.186-.108-7.193-.006-15.461-.094-22.658-.621-7.184-1.105-15.448-1.705-22.638-1.132-7.153-2.193-15.383-3.302-22.542-1.796-7.499-3.296-16.057-5.214-23.525" fill="none" stroke="#000" stroke-linecap="round" stroke-width="2"/>
        <path d="M967.444,477.419c-20.102-11.609-41.045-22.364-62.459-31.345" fill="none" stroke="#000" stroke-linecap="round" stroke-width="2"/>
        <path d="M675.867,1000.845c.64-44.164,18.638-91.797,35.977-128.614,21.703-44.849,49.116-86.954,80.282-125.788,34.499-43.082,73.831-82.581,117.621-116.229,38.02-28.634,79.879-54.317,126.482-65.851,26.795-6.186,57.658-6.985,80.749,10.052" fill="none" stroke="#000" stroke-linecap="round" stroke-width="2"/>
        <path d="M1146.278,663.888c2.395-32.053-3.387-69.078-29.3-89.474" fill="none" stroke="#000" stroke-linecap="round" stroke-width="2"/>
        <path d="M1147.485,755.238c33.676-67.708,69.206-164.874,45.416-238.156-1.426-2.983-3.011-7.873-4.376-10.864-1.65-2.65-3.725-7.256-5.318-9.92-1.858-2.328-4.444-6.596-6.25-8.941-1.775-1.798-4.96-5.607-6.706-7.418-5.758-5.22-12.231-10.478-18.171-15.478-27.668-22.513-66.358-23.928-100.021-17.299-28.414,5.396-55.888,15.999-81.729,28.835-28.283,13.925-55.252,30.916-80.806,49.341-52.396,37.989-99.895,82.701-142.609,131.257-39.59,44.99-75.216,93.657-105.594,145.33h0c-17.181,29.443-32.751,60.05-45.669,91.61h0c-24.051,59.302-48.841,147.282-17.731,207.378,3.893,7.914,9.828,15.527,15.915,21.87,3.17,2.971,7.599,6.583,10.907,9.4,3.045,2.528,6.61,5.544,9.652,8.074,2.335,1.477,6.58,4.351,8.918,5.846,2.581,1.207,12,6.546,9.746,4.785-241.069-188.282,357.518-838.285,537.193-670.949" fill="none" stroke="#000" stroke-linecap="round" stroke-width="2"/>
        <path d="M746.632,319.257c17.982-52.594,32.871-120.235,10.101-173.155-2.297-5.088-5.508-11.095-8.822-15.606-2.604-4.096-6.785-8.726-10.091-12.261-4.994-4.483-10.666-9.224-15.819-13.511-40.837-34.908-101.138-23.575-147.405-6.426-103.893,39.606-202.357,127.944-273.516,212.168-70.807,84.253-139.624,193.871-163.316,302.195-9.167,43.852-12.808,97.532,13.547,136.159,2.753,4.287,7.074,9.039,10.555,12.768,2.578,1.82,6.183,5.582,8.726,7.453,3.676,3.024,7.703,6.48,11.372,9.512,2.497,1.853,9.937,8.766,8.918,5.846-65.016-186.219,102.286-415.023,219.975-526.11,5.661-5.343,15.837,4.402,23.043,7.367,6.197,2.406,12.988,5.973,19.056,8.681,5.665,2.639,12.464,5.82,18.125,8.455,5.235,2.695,11.255,6.577,16.331,9.544,13.458,8.279,27.648,16.252,40.397,25.614,16.256,11.611,32.986,23.085,48.531,35.649,45.734,35.448,88.416,74.788,129.738,115.238,16.966,17.621,34.381,35.234,51.061,53.127,19.026,21.706,38.637,43.237,57.08,65.446" fill="none" stroke="#000" stroke-linecap="round" stroke-width="2"/>
        <path d="M1134.145,687.049c-.281,1.821-.874,5.642-1.159,7.482-1.92,4.633-4.368,10.533-6.286,15.159" fill="none" stroke="#000" stroke-linecap="round" stroke-width="2"/>
        <path d="M1146.278,774.477v-110.589" fill="none" stroke="#000" stroke-linecap="round" stroke-width="2"/>
        <path d="M261.341,815.039c-3.556-5.625-7.693-12.17-11.246-17.792" fill="none" stroke="#000" stroke-linecap="round" stroke-width="2"/>
        <path d="M848.604,962.605c-2.866,1.149-7.561,3.032-10.416,4.178-7.993,1.762-16.882,3.721-24.873,5.485" fill="none" stroke="#000" stroke-linecap="round" stroke-width="2"/>
        <path d="M742.92,352.482c-26.831,24.77-53.804,49.668-80.634,74.438" fill="none" stroke="#000" stroke-linecap="round" stroke-width="2"/>
        <path d="M763.248,342.998c1.379-.81,5.029-2.953,6.357-3.732" fill="none" stroke="#000" stroke-linecap="round" stroke-width="2"/>
        <path d="M766.348,345.591l-3.1-2.593" fill="none" stroke="#000" stroke-linecap="round" stroke-width="2"/>
        <path d="M788.33,375.715l-3.243-1.49" fill="none" stroke="#000" stroke-linecap="round" stroke-width="2"/>
        <path d="M795.864,353.797c-1.793-2.311-3.905-5.04-5.697-7.354" fill="none" stroke="#000" stroke-linecap="round" stroke-width="2"/>
        <path d="M802.874,349.997c1.633-1.913,4.921-5.767,6.554-7.682" fill="none" stroke="#000" stroke-linecap="round" stroke-width="2"/>
        <path d="M773.288,981.094c-8.237,1.816-17.325,3.821-25.558,5.636" fill="none" stroke="#000" stroke-linecap="round" stroke-width="2"/>
        <path d="M854.184,412.142l1.467-.974" fill="none" stroke="#000" stroke-linecap="round" stroke-width="2"/>
        <path d="M812.015,370.669c22.75,21.088,45.678,42.336,68.426,63.424" fill="none" stroke="#000" stroke-linecap="round" stroke-width="2"/>
        <path d="M874.379,536.545c-20.864-55.227-41.771-110.574-62.635-165.8" fill="none" stroke="#000" stroke-linecap="round" stroke-width="2"/>
        <path d="M926.789,474.432l2.991-.421" fill="none" stroke="#000" stroke-linecap="round" stroke-width="2"/>
        <path d="M927.022,930.053c-.535.332-4.583,2.85-5,3.108" fill="none" stroke="#000" stroke-linecap="round" stroke-width="2"/>
        <path d="M1063.437,821.918c-1.623,2.283-4.532,6.375-6.154,8.654" fill="none" stroke="#000" stroke-linecap="round" stroke-width="2"/>
      </g>
    </g>
    <path d="M1146.278,762.767c0,226.445-213.054,410.015-475.87,410.015s-479.527-186.052-479.527-388.383" fill="none" stroke="#000" stroke-linecap="round" stroke-width="2"/>
    <line x1="675.867" y1="1000.845" x2="675.867" y2="1172.782" fill="none" stroke="#000" stroke-linecap="round" stroke-width="2"/>
    <path d="M722.001,104.724C521.872,3.279,46.433,522.263,161.865,761.588" fill="none" stroke="#000" stroke-linecap="round" stroke-width="2"/>
  </g>
</svg>